<svg xmlns="http://www.w3.org/2000/svg">
  <defs>
    <symbol id="svgsymbol-add" viewBox="0 0 24 24"><path d="M0 0h24v24H0V0z" fill="none"/><path d="M19 13h-6v6h-2v-6H5v-2h6V5h2v6h6v2z"/></symbol>
    <symbol id="svgsymbol-arrow-downward" viewBox="0 0 24 24"><path d="M20 12l-1.41-1.41L13 16.17V4h-2v12.17l-5.58-5.59L4 12l8 8 8-8z"/></symbol>
    <symbol id="svgsymbol-arrow-drop-down" viewBox="0 0 24 24"><path d="M7 10l5 5 5-5H7z"/></symbol>
    <symbol id="svgsymbol-arrow-drop-up" viewBox="0 0 24 24"><path d="M7 14l5-5 5 5H7z"/></symbol>
    <symbol id="svgsymbol-arrow-upward" viewBox="0 0 24 24"><path d="M4 12l1.41 1.41L11 7.83V20h2V7.83l5.58 5.59L20 12l-8-8-8 8z"/></symbol>
    <symbol id="svgsymbol-audio" viewBox="0 0 24 24"><path d="M0 0h24v24H0V0z" fill="none"/><path d="M12 3v10.55c-.59-.34-1.27-.55-2-.55-2.21 0-4 1.79-4 4s1.79 4 4 4 4-1.79 4-4V7h4V3h-6zm-2 16c-1.1 0-2-.9-2-2s.9-2 2-2 2 .9 2 2-.9 2-2 2z"/></symbol>
    <symbol id="svgsymbol-benefit" viewBox="0 0 24 24"><path d="M11.925 0c3.023 0 5.87 1.13 8.055 3.131l-.608.664A10.982 10.982 0 0011.925.9C5.836.9.9 5.836.9 11.925S5.836 22.95 11.925 22.95 22.95 18.014 22.95 11.925c0-.865-.1-1.716-.294-2.542l.75-.694c.293 1.044.444 2.13.444 3.236 0 6.586-5.339 11.925-11.925 11.925S0 18.511 0 11.925 5.339 0 11.925 0zm10.631 3.881l1.238 1.238L11.94 16.973l-5.343-5.09 1.206-1.267 4.107 3.911L22.556 3.881z"/></symbol>
    <symbol id="svgsymbol-calendar-today" viewBox="0 0 24 24"><path d="M0 0h24v24H0z" fill="none"/><path d="M20 3h-1V1h-2v2H7V1H5v2H4c-1.1 0-2 .9-2 2v16c0 1.1.9 2 2 2h16c1.1 0 2-.9 2-2V5c0-1.1-.9-2-2-2zm0 18H4V8h16v13z"/></symbol>
    <symbol id="svgsymbol-check" viewBox="0 0 24 24"><path d="M0 0h24v24H0V0z" fill="none"/><path d="M9 16.17L4.83 12l-1.42 1.41L9 19 21 7l-1.41-1.41L9 16.17z"/></symbol>
    <symbol id="svgsymbol-chevron-left" viewBox="0 0 24 24"><path d="M0 0h24v24H0V0z" fill="none"/><path d="M15.41 7.41L14 6l-6 6 6 6 1.41-1.41L10.83 12l4.58-4.59z"/></symbol>
    <symbol id="svgsymbol-chevron-right" viewBox="0 0 24 24"><path d="M10 6L8.59 7.41 13.17 12l-4.58 4.59L10 18l6-6-6-6z"/></symbol>
    <symbol id="svgsymbol-close" viewBox="0 0 24 24"><path d="M0 0h24v24H0V0z" fill="none"/><path d="M19 6.41L17.59 5 12 10.59 6.41 5 5 6.41 10.59 12 5 17.59 6.41 19 12 13.41 17.59 19 19 17.59 13.41 12 19 6.41z"/></symbol>
    <symbol id="svgsymbol-comment" viewBox="0 0 72 72"><path d="M71.967 3v50.892H30.488L8.575 69V53.892H-.033V3h72zm-2.001 2h-68v46.891h8.61l-.001 13.3 19.29-13.3h40.101V5z" fill="#191919" fill-rule="evenodd"/></symbol>
    <symbol id="svgsymbol-content_copy" viewBox="0 0 24 24" fill="none"><path fill-rule="evenodd" clip-rule="evenodd" d="M6 2C6 0.895431 6.89543 0 8 0H20C21.1046 0 22 0.895431 22 2V18C22 19.1046 21.1046 20 20 20H8C6.89543 20 6 19.1046 6 18V2ZM8 1H20C20.5523 1 21 1.44772 21 2V18C21 18.5523 20.5523 19 20 19H8C7.44772 19 7 18.5523 7 18V2C7 1.44772 7.44772 1 8 1Z" fill="#0072EF"/><path d="M2 6V21.5C2 22.8807 3.11929 24 4.5 24H16V23H4.5C3.67157 23 3 22.3284 3 21.5V6H2Z" fill="#0072EF"/></symbol>
    <symbol id="svgsymbol-cooperations" viewBox="0 0 72 72"><g fill="none" fill-rule="evenodd"><path d="M0 0h72v72H0z"/><path d="M62.422 14l9.255 18.71-4.079 2.953-3.881 2.842-1.277.958-1.295 1.018-1.728 1.384-.58.476c-.649.535-1.37.85-2.108.91a5.343 5.343 0 01-1.372 3.9l-.172.18a5.287 5.287 0 01-3.821 1.615l.033-.001-.067.185a5.322 5.322 0 01-.837 1.428l-.184.213-.172.179a5.314 5.314 0 01-4.342 1.561l-.038-.005-.059.133a5.344 5.344 0 01-.855 1.285l-.181.192a5.327 5.327 0 01-3.805 1.589l-.273-.008-.091.17a5.45 5.45 0 01-.653.899l-.193.204-.093.093-.153.145-.183.154-.051.037-.112.09a5.267 5.267 0 01-2.936 1.064l-.268.007a5.314 5.314 0 01-2.597-.683l-.427-.239a4.402 4.402 0 01-5.805-.365 4.386 4.386 0 01-1.282-3.33c-1.431.336-3-.055-4.116-1.172a4.38 4.38 0 01-1.022-1.598 4.4 4.4 0 01-5.595-3.417 4.399 4.399 0 01-3.908-6.72l-.853-.636c-.065-.05-.128-.1-.19-.15l-.588-.47-.629-.487-1.488-1.118-2.139-1.582L0 32.778 9.12 14.19l1.839 1.02.89.5.842.483.79.465.741.448.691.431.327.209.616.405c.296.199.573.39.832.577l.042.028.09.049.1.04.112.03.127.02.143.01.078.001.17-.006.19-.018.211-.03.235-.04.26-.055.288-.067.316-.08.346-.095.58-.167.659-.201 1.008-.322 1.49-.493.943-.311c2.267-.733 3.9-1.137 5.644-1.334 2.925-.33 5.535.095 7.87 1.486l.266.159c.728-.367 1.548-.473 2.718-.465.393.015.787.094 1.357.265l.408.127.47.156 2.536.863.711.228c1.524.473 2.85.797 4.097.975.658.094 1.275.143 1.85.145.727.003 1.897-.396 3.459-1.2l.535-.284.563-.313.293-.168.605-.36.634-.388.66-.42c.225-.144.454-.294.687-.449l.713-.48L62.422 14zM9.988 16.96L2.535 32.152l3.88 2.843 3.069 2.278 1.048.8.947.752.836.622.119.091 3.493-3.491a4.4 4.4 0 016.05-.16l.17.16a4.379 4.379 0 011.216 2.316 4.39 4.39 0 012.756.834c.092.045.181.096.269.15.008 0 .016 0 .024.016.072.04.136.088.2.129l.095.067.174.139.073.067c.07.057.143.121.206.186.089.088.161.177.241.265.032.04.063.08.095.13.072.08.12.158.175.239l.064.097c.042.065.08.131.112.202l.09.176c.018.034.034.069.05.104a4.393 4.393 0 014.978 2.526c.234.34.409.708.525 1.092.089.272.144.546.168.828v.001a4.315 4.315 0 012.266.244 3.96 3.96 0 011.824 1.06 4.017 4.017 0 011.164 2.836c0 .128-.007.25-.024.37.01.008.01.015 0 .023-.008.09-.015.179-.032.258l-.008.04-.023.156c-.02.101-.048.197-.08.293l-.042.146-.087.234-.11.249c-.025.04-.05.088-.072.136a3.339 3.339 0 01-.182.308 4.12 4.12 0 01-.286.47 4.042 4.042 0 01-.523.64l-3.113 3.109.088.047c.378.182.792.294 1.219.322l.214.008a3.27 3.27 0 002.12-.765.166.166 0 00.04-.032l.108-.095.108-.106c.343-.346.597-.747.765-1.174.135-.36.207-.748.215-1.124a3.327 3.327 0 004.034-.555 3.388 3.388 0 00.925-2.974 3.31 3.31 0 002.176.804c.9 0 1.737-.354 2.375-.998a3.393 3.393 0 00.917-3.094c.519.32 1.109.5 1.73.5.909 0 1.754-.356 2.384-1.007a3.4 3.4 0 00.887-3.22l-2.09-2.084.016-.026-.02.02-4.33-4.32-.256-.229-.185-.212-2.078-2.086-.07-.073a28.375 28.375 0 00-1.588-1.637l-.113-.11-.2-.186-.175-.15-.123-.11-.061-.061-.11-.097-.231-.179a2.962 2.962 0 00-.69-.364l-.226-.072a2.995 2.995 0 00-.77-.098 2.81 2.81 0 00-1.515.427l.059-.035-.653.503-.013.013-.252.188-1.517 1.147-1.997 1.483c-1.866 1.364-4.06 1.83-6.396 1.41-2.467-.451-4.634-3.442-4.135-5.959.108-.483.336-.953.65-1.356l.106-.133c.085-.103.167-.188.284-.29l-.085.073c.084-.09.174-.179.267-.264l4.431-4.051a3.4 3.4 0 01.24-.22l.118-.095.147-.149 5.097-4.669c-3.205-1.699-6.81-1.135-10.167-.152l-.695.21-.686.218-.677.223-1.958.66-.624.206-.608.19c-2.198.67-4.04.987-5.235.128a30.494 30.494 0 00-.792-.549l-.59-.388a46.434 46.434 0 00-.315-.2l-.667-.416-.716-.433-.768-.45-.817-.47-.868-.486zm25 30.77l-.1.002-.175.023h-.08l-.152.03a2.232 2.232 0 00-.177.052l-1.859.617-4.009 4.015-.121.13a2.398 2.398 0 002.973 3.664l5.044-5.087.065-.097.1-.1.016-.018a2.368 2.368 0 00-.024-2.052 2.295 2.295 0 00-.46-.647 2.3 2.3 0 00-.709-.49 2.428 2.428 0 00-.332-.042zm-5.292-3.762c-.239 0-.469.043-.681.126l-1.528.6a4.393 4.393 0 01-.84 1.175l-4.204 4.203-.06.06a2.399 2.399 0 004.048 1.225h-.001l4.203-4.202.121-.132c.571-.662.72-1.562.45-2.349l-.116-.126a1.925 1.925 0 00-1.392-.58zm-5.349-3.192l-.14.009-.127.03-.112.001-.024.004-1.133.597a4.378 4.378 0 01-.664.85l-4.203 4.204a4.395 4.395 0 01-.994.748 2.38 2.38 0 00.687 1.438 2.4 2.4 0 002.73.469 4.372 4.372 0 011.258-2.576l4.202-4.203.06-.059a2.367 2.367 0 00-.815-1.373l-.065-.024-.136-.043-.098-.026-.147-.026-.082-.01-.197-.01zm-5.111-3.908a1.93 1.93 0 00-1.394.585l-4.939 4.978-.206-.161a2.398 2.398 0 002.41 3.474 4.365 4.365 0 011.116-1.893l4.203-4.204c.241-.24.503-.447.78-.62l.012-.2-.003-.025-.02-.207-.058-.281-.074-.22-.039-.09.007.021-.048-.1-.07-.121-.097-.14-.124-.154.008.013-.17-.164a1.956 1.956 0 00-1.295-.491zM61.655 16.96l-.395.27-.389.264-.757.501-.368.239-.717.453c-3.163 1.965-5.507 2.945-7.033 2.94-1.54-.006-3.158-.295-4.683-.685l-.648-.172a37.91 37.91 0 01-.634-.182l-.616-.187-.596-.19-.851-.283-1.942-.666-.395-.129-.353-.107c-.331-.095-.595-.154-.779-.16a6.684 6.684 0 00-1.063.056L27.61 30.15c-.252.24-.397.69-.335 1.065.01.059.027.12.061.217l.157.271c1.27 2.068 3.21 2.549 5.482 1.436a19.757 19.757 0 002.53-1.526l.829-.62c.198-.151.39-.302.57-.446l.513-.427.285-.244.201-.192c.1-.094.197-.18.301-.26l.084-.063.088-.07c.106-.081.21-.151.306-.21l.389-.221a5.283 5.283 0 012.48-.613c.434 0 .85.049 1.256.16l-.088-.021.173.037a4.8 4.8 0 01.971.348l.23.12.371.22c.247.156.478.334.688.527l.203.198.8.808.114.106 1.174 1.192.82.818 1.383 1.404 1.029 1.039.04.035.131.131.045.05 4.278 4.315a5.39 5.39 0 011.051 1.499c.435.09.882-.052 1.346-.435.205-.17.434-.359.678-.556l1.15-.923 1.713-1.353.893-.676 2.448-1.805 4.688-3.405-7.48-15.12z" fill="#191919"/></g></symbol>
    <symbol id="svgsymbol-delete" viewBox="0 0 24 24"><path d="M4.22217 3V4H19.7222L19.7222 3H15.8472L14.74 2H9.20431L8.09717 3H4.22217Z"/><path fill-rule="evenodd" clip-rule="evenodd" d="M5 5H19V20C19 21.1046 18.1046 22 17 22H7C5.89543 22 5 21.1046 5 20V5ZM6 6H18V20C18 20.5523 17.5523 21 17 21H7C6.44772 21 6 20.5523 6 20V6Z"/></symbol>
    <symbol id="svgsymbol-document" viewBox="0 0 24 24"><path d="M0 0h24v24H0V0z" fill="none"/><path d="M8 16h8v2H8zm0-4h8v2H8zm6-10H6c-1.1 0-2 .9-2 2v16c0 1.1.89 2 1.99 2H18c1.1 0 2-.9 2-2V8l-6-6zm4 18H6V4h7v5h5v11z"/></symbol>
    <symbol id="svgsymbol-edit" viewBox="0 0 24 24"><path d="M0 0h24v24H0z" fill="none"/><path d="M3 17.25V21h3.75L17.81 9.94l-3.75-3.75L3 17.25zM20.71 7.04a.996.996 0 000-1.41l-2.34-2.34a.996.996 0 00-1.41 0l-1.83 1.83 3.75 3.75 1.83-1.83z"/></symbol>
    <symbol id="svgsymbol-expand-less" viewBox="0 0 24 24"><path d="M12 8l-6 6 1.41 1.41L12 10.83l4.59 4.58L18 14l-6-6z"/></symbol>
    <symbol id="svgsymbol-expand-more" viewBox="0 0 24 24"><path d="M16.59 8.59L12 13.17 7.41 8.59 6 10l6 6 6-6-1.41-1.41z"/></symbol>
    <symbol id="svgsymbol-external-link" viewBox="0 0 24 24"><path d="M0 0h24v24H0V0z" fill="none"/><path d="M19 19H5V5h7V3H5a2 2 0 00-2 2v14a2 2 0 002 2h14c1.1 0 2-.9 2-2v-7h-2v7zM14 3v2h3.59l-9.83 9.83 1.41 1.41L19 6.41V10h2V3h-7z"/></symbol>
    <symbol id="svgsymbol-facebook" viewBox="0 0 24 24" fill="none"><path d="M15.8902 3.81555C14.402 3.81555 13.9717 4.4727 13.9717 5.92212V8.32657H17.9414L17.5435 12.2112H13.9733V24H9.20936V12.2112H6V8.32657H9.20936V5.98815C9.20936 2.06979 10.7963 6.08379e-05 15.224 6.08379e-05C16.1518 -0.00208873 17.079 0.0527253 18 0.164349V3.82015L15.8902 3.81555Z" fill="#0072EF"/></symbol>
    <symbol id="svgsymbol-file-download" viewBox="0 0 24 24"><path d="M19 9h-4V3H9v6H5l7 7 7-7zM5 18v2h14v-2H5z"/></symbol>
    <symbol id="svgsymbol-file-upload" viewBox="0 0 48 49"><path d="M23.3191 1.8536L5.34784 18.8395L4.66094 18.1128L23.8244 0L42.9879 18.1128L42.301 18.8395L24.3297 1.85356L24.3297 42.0486L23.3191 42.0486L23.3191 1.8536Z"/><path d="M46 48.0039H2V47.0039H46V48.0039Z"/></symbol>
    <symbol id="svgsymbol-form" viewBox="0 0 72 72"><g fill="none" fill-rule="evenodd"><path d="M0 0h72v72H0z"/><path d="M36.837 0c3.244 0 5.996 2.327 6.46 5.505.01.099.099.176.22.175h9.82V10h7v62h-47V10h7V5.68h9.835c.107.001.196-.076.212-.218C30.842 2.327 33.594 0 36.837 0zM20.186 12h-4.848v58h43V12h-4.851l.001 3.327H20.187L20.186 12zm10.496 40l1.655 1.613L23.731 62l-4.394-4.28 1.656-1.614 2.736 2.668L30.682 52zm22.655 4v2h-18v-2h18zM30.682 38l1.655 1.774L23.731 49l-4.394-4.709 1.656-1.774 2.736 2.934L30.682 38zm22.655 5v2h-18v-2h18zM30.682 24l1.655 1.774L23.731 35l-4.394-4.709 1.656-1.774 2.736 2.934L30.682 24zm22.655 4v2h-18v-2h18zM36.838 2c-2.24 0-4.136 1.598-4.446 3.705-.115 1.13-1.1 1.984-2.25 1.968h-7.805V13h29V7.672h-7.79c-1.108.016-2.054-.758-2.236-1.771l-.022-.154C40.974 3.598 39.077 2 36.838 2z" fill="#191919"/></g></symbol>
    <symbol id="svgsymbol-internal-link" viewBox="0 0 24 24"><path d="M20.165 11.026l-3.786-3.659L17.793 6 24 12l-6.207 6-1.414-1.367 3.8-3.673H0v-1.934z"/></symbol>
    <symbol id="svgsymbol-linkedin" viewBox="0 0 24 24" fill="none"><path fill-rule="evenodd" clip-rule="evenodd" d="M3.80916 2H20.1908C21.19 2 22 2.81 22 3.80916V20.1908C22 21.19 21.19 22 20.1908 22H3.80916C2.81 22 2 21.19 2 20.1908V3.80916C2 2.81 2.81 2 3.80916 2ZM7.66234 19.7959C7.95312 19.7959 8.18883 19.5602 8.18883 19.2694V9.87458C8.18883 9.5838 7.95312 9.34809 7.66234 9.34809H5.42119C5.1304 9.34809 4.89469 9.5838 4.89469 9.87458V19.2694C4.89469 19.5602 5.1304 19.7959 5.42119 19.7959H7.66234ZM6.54176 8.462C5.3659 8.462 4.41265 7.50875 4.41265 6.33289C4.41265 5.15702 5.3659 4.20378 6.54176 4.20378C7.71763 4.20378 8.67087 5.15702 8.67087 6.33289C8.67087 7.50875 7.71768 8.462 6.54176 8.462ZM19.4169 19.7962C19.6842 19.7962 19.901 19.5794 19.901 19.3121V14.7316C19.9011 12.748 19.9013 9.19076 16.0721 9.19076C14.3331 9.19076 13.5164 9.82735 12.9668 10.6521V9.83248C12.9668 9.56515 12.75 9.3484 12.4827 9.3484H10.1567C9.88942 9.3484 9.67266 9.56515 9.67266 9.83248V19.3121C9.67266 19.5794 9.88942 19.7962 10.1567 19.7962H12.4827C12.7501 19.7962 12.9668 19.5794 12.9668 19.3121V14.2294C13.0272 13.5465 13.3278 12.0247 14.8099 12.0247C16.58 12.0247 16.5449 13.9325 16.5301 14.7362C16.5289 14.8001 16.5279 14.857 16.5279 14.9054V19.3121C16.5279 19.5794 16.7447 19.7962 17.012 19.7962H19.4169Z" fill="#0072EF"/></symbol>
    <symbol id="svgsymbol-mail" viewBox="0 0 24 24" fill="none"><path fill-rule="evenodd" clip-rule="evenodd" d="M0 5C0 3.89543 0.895431 3 2 3H22C23.1046 3 24 3.89543 24 5V19C24 20.1046 23.1046 21 22 21H2C0.89543 21 0 20.1046 0 19V5ZM2 4H22C22.0465 4 22.0923 4.00318 22.1372 4.00933L12 11.3818L1.86284 4.00933C1.90768 4.00318 1.95347 4 2 4ZM1.05888 4.66113C1.02077 4.76695 1 4.88105 1 5V19C1 19.5523 1.44772 20 2 20H22C22.5523 20 23 19.5523 23 19V5C23 4.88106 22.9792 4.76696 22.9411 4.66115L12 12.6183L1.05888 4.66113Z" fill="#0072EF"/></symbol>
    <symbol id="svgsymbol-menu" viewBox="0 0 24 24"><path d="M0 0h24v24H0V0z" fill="none"/><path d="M3 18h18v-2H3v2zm0-5h18v-2H3v2zm0-7v2h18V6H3z"/></symbol>
    <symbol id="svgsymbol-more-horiz" viewBox="0 0 24 24"><path d="M0 0h24v24H0V0z" fill="none"/><path d="M6 10c-1.1 0-2 .9-2 2s.9 2 2 2 2-.9 2-2-.9-2-2-2zm12 0c-1.1 0-2 .9-2 2s.9 2 2 2 2-.9 2-2-.9-2-2-2zm-6 0c-1.1 0-2 .9-2 2s.9 2 2 2 2-.9 2-2-.9-2-2-2z"/></symbol>
    <symbol id="svgsymbol-pause" viewBox="0 0 24 24"><path d="M0 0h24v24H0z" fill="none"/><path d="M6 19h4V5H6v14zm8-14v14h4V5h-4z"/></symbol>
    <symbol id="svgsymbol-person-outline" viewBox="0 0 24 24"><path d="M0 0h24v24H0V0z" fill="none"/><path d="M12 5.9a2.1 2.1 0 110 4.2 2.1 2.1 0 010-4.2m0 9c2.97 0 6.1 1.46 6.1 2.1v1.1H5.9V17c0-.64 3.13-2.1 6.1-2.1M12 4C9.79 4 8 5.79 8 8s1.79 4 4 4 4-1.79 4-4-1.79-4-4-4zm0 9c-2.67 0-8 1.34-8 4v3h16v-3c0-2.66-5.33-4-8-4z"/></symbol>
    <symbol id="svgsymbol-personal-contact" viewBox="0 0 72 72"><g fill="none" fill-rule="evenodd"><path d="M0 0h72v72H0z"/><path d="M45.656 41l1.142.766.17.11.5.314.646.386c.85.499 1.796 1.013 2.82 1.524 2.826 1.409 5.783 2.557 8.728 3.277 5.116 1.183 6.636 5.542 6.292 11.305l-.008.114-.118 1.516a86.92 86.92 0 01-.161 1.71l-.075.68-.077.62c-.013.098-.026.193-.04.285l-.078.518c-.027.161-.054.31-.081.447l-.085.426-.373.234-.302.179-.492.275c-.36.196-.77.407-1.227.631a48.683 48.683 0 01-5.689 2.323C50.975 70.74 43.896 72 36.018 72c-7.878 0-14.957-1.26-21.13-3.36A48.683 48.683 0 019.2 66.317a32.3 32.3 0 01-1.488-.775l-.408-.235-.522-.325-.068-.458c-.01-.07-.022-.143-.032-.22l-.103-.79-.101-.872-.183-1.74-.113-1.16L6.06 58.4c-.407-5.352 1.22-9.849 6.124-11.02l.683-.175c2.73-.728 5.45-1.806 8.058-3.106a47.646 47.646 0 003.023-1.643l.536-.324.423-.266 1.297-.864 5.033 15.261.708 2.1 1.236-3.408-.081-.116c-1.94-2.855-2.152-5.188-.88-6.895l.128-.163c.947-1.154 2.664-1.872 3.582-1.872.882 0 2.63.721 3.594 1.86 1.465 1.731 1.302 4.14-.772 7.097l-.071.098 1.231 3.398.708-2.092L45.656 41zm1.13 3.16l-4.198 12.734-.896 2.654-1.773 4.894-3.553-9.811.331-.435c1.928-2.525 2.097-4.113 1.235-5.132-.314-.37-.772-.673-1.304-.892a4.657 4.657 0 00-.226-.086l-.208-.07-.264-.079-.19.051-.19.059-.218.078-.112.045c-.516.215-.958.514-1.26.882-.836 1.019-.665 2.623 1.21 5.156l.32.432-3.55 9.802-1.78-4.914-.889-2.634-4.2-12.734-.717.418c-.768.439-1.601.885-2.491 1.329-2.956 1.473-6.054 2.676-9.183 3.442l-.237.061c-3.495.979-4.701 4.616-4.298 9.118l.15 1.603.171 1.681.13 1.167.096.778.286.157.537.284.295.15.313.155a46.602 46.602 0 005.444 2.221c5.962 2.03 12.814 3.249 20.451 3.249 7.638 0 14.49-1.22 20.452-3.249 2.08-.708 3.9-1.465 5.443-2.22.537-.263 1-.506 1.387-.723l.064-.037.03-.19.072-.514.072-.582.071-.644a90.76 90.76 0 00.205-2.245l.072-.97.02-.358c.221-4.709-1.013-8.034-4.732-8.894l-.72-.184c-2.88-.767-5.73-1.896-8.458-3.256a49.72 49.72 0 01-2.943-1.59l-.266-.157zM36.667.057c3.152-.267 5.934.42 8.082 1.797l.288.167c.337.203.658.42.964.649l.302.233c1.024.819 1.743 1.646 2.191 2.32l.012.02.092.022c.59.161 1.265.5 1.935 1.094l.2.186c2.22 2.148 3.082 6.218 2.02 12.637l-.048.299c-.036.2-.08.401-.13.608l-.032.114.032.014c1.429.675 1.858 2.783.948 6.18l-.18.64c-.754 2.606-1.557 4.103-2.567 4.689l-.017.008-.074.352c-1.054 4.639-4.632 9.248-9.212 11.107l-.321.125a10.279 10.279 0 01-7.352.004c-4.9-1.8-8.63-6.652-9.613-11.552l-.006-.036-.016-.008c-1.012-.588-1.816-2.09-2.576-4.717l-.094-.335c-.936-3.595-.5-5.827.961-6.5l.096-.042-.048-.199-.081-.405-.046-.29c-.513-2.603-.536-4.795.009-6.822l.112-.437c.672-2.46 2.022-4.677 3.807-6.488.983-1.088 2.16-2.05 3.562-2.962.934-.689 1.955-1.24 3.155-1.71l.732-.275a8.679 8.679 0 012.913-.487zm6.978 3.568c-1.766-1.133-4.101-1.71-6.892-1.477-.948 0-1.805.158-2.6.48l-.4.151a11.566 11.566 0 00-2.72 1.478c-1.311.856-2.355 1.708-3.235 2.682-1.666 1.69-2.872 3.73-3.412 5.998-.458 1.707-.438 3.582.023 5.928l.05.305c.092.515.238 1.026.418 1.454l.724 1.713-1.82-.264c-.612-.088-.96.267-.77 1.769l.054.367c.01.064.022.131.035.2l.084.431.105.477.126.525.072.28c.438 1.578.868 2.655 1.274 3.287.248.388.397.502.461.51l.776.098.117.784c.658 4.39 4.017 8.945 8.4 10.556 1.918.73 3.992.73 5.917-.003 4.325-1.617 7.744-6.22 8.394-10.553l.117-.784.776-.098c.064-.008.213-.122.461-.51.406-.632.835-1.709 1.275-3.292l.08-.282.139-.526.115-.478.05-.222.08-.409.033-.188.05-.345c.157-1.298-.171-1.63-.73-1.586l-1.615.126.568-1.538c.256-.694.408-1.252.487-1.809l.067-.421c.86-5.564.14-8.82-1.472-10.378a3.148 3.148 0 00-1.11-.714 2.54 2.54 0 00-.254-.078l-.103-.022-.6-.038-.273-.51-.07-.117-.111-.17-.155-.215-.094-.124a9.11 9.11 0 00-1.513-1.525 9.748 9.748 0 00-1.326-.892z" fill="#191919"/></g></symbol>
    <symbol id="svgsymbol-phone-contact" viewBox="0 0 72 72"><g fill="none" fill-rule="evenodd"><path d="M0 0h72v72H0z"/><path d="M15.04 2.284A21.285 21.285 0 007.344 6.95C2.483 11.592 0 17.05 0 23.13c0 9.39 5.957 19.78 17.626 30.926C29.523 65.421 39.899 71 49.388 71c5.47 0 10.636-1.858 15.574-5.568a20.963 20.963 0 001.833-1.557 20.13 20.13 0 002.854-3.402 20.794 20.794 0 002.046-3.97c.771-2.022.042-4.284-1.769-5.525l-12.38-8.492c-2.121-1.445-5.038-1.062-6.68.882l-5.518 6.723a.424.424 0 01-.532.097 69.555 69.555 0 01-12.97-9.851 67.505 67.505 0 01-10.323-12.398c-.066-.107-.035-.26.097-.356l7.072-5.294c2.05-1.6 2.445-4.448.909-6.497L20.708 3.963c-1.293-1.718-3.605-2.399-5.667-1.679zm4.07 2.882L28 16.993c.879 1.172.655 2.788-.523 3.708l-7.046 5.273a2.268 2.268 0 00-.6 3.035 69.51 69.51 0 0010.633 12.774A71.56 71.56 0 0043.817 51.92c1.041.589 2.351.345 3.084-.57l5.503-6.702c.968-1.147 2.738-1.38 4.014-.511l12.377 8.49c1.055.723 1.47 2.012 1.032 3.16a18.778 18.778 0 01-1.846 3.581 18.118 18.118 0 01-2.567 3.06 18.76 18.76 0 01-1.656 1.406c-4.6 3.458-9.35 5.166-14.37 5.166-8.876 0-18.82-5.347-30.38-16.39C7.695 41.806 2 31.872 2 23.132c0-5.517 2.249-10.459 6.723-14.733a19.285 19.285 0 016.975-4.225c1.25-.436 2.646-.025 3.412.993z" fill="#191919"/></g></symbol>
    <symbol id="svgsymbol-phone" viewBox="0 0 24 24"><path d="M0 0h24v24H0V0z" fill="none"/><path d="M6.54 5c.06.89.21 1.76.45 2.59l-1.2 1.2c-.41-1.2-.67-2.47-.76-3.79h1.51m9.86 12.02c.85.24 1.72.39 2.6.45v1.49c-1.32-.09-2.59-.35-3.8-.75l1.2-1.19M7.5 3H4c-.55 0-1 .45-1 1 0 9.39 7.61 17 17 17 .55 0 1-.45 1-1v-3.49c0-.55-.45-1-1-1-1.24 0-2.45-.2-3.57-.57a.84.84 0 00-.31-.05c-.26 0-.51.1-.71.29l-2.2 2.2a15.149 15.149 0 01-6.59-6.59l2.2-2.2c.28-.28.36-.67.25-1.02A11.36 11.36 0 018.5 4c0-.55-.45-1-1-1z"/></symbol>
    <symbol id="svgsymbol-picture-as-pdf" viewBox="0 0 24 24"><path d="M20 2H8c-1.1 0-2 .9-2 2v12c0 1.1.9 2 2 2h12c1.1 0 2-.9 2-2V4c0-1.1-.9-2-2-2zm-8.5 7.5c0 .83-.67 1.5-1.5 1.5H9v2H7.5V7H10c.83 0 1.5.67 1.5 1.5v1zm5 2c0 .83-.67 1.5-1.5 1.5h-2.5V7H15c.83 0 1.5.67 1.5 1.5v3zm4-3H19v1h1.5V11H19v2h-1.5V7h3v1.5zM9 9.5h1v-1H9v1zM4 6H2v14c0 1.1.9 2 2 2h14v-2H4V6zm10 5.5h1v-3h-1v3z"/></symbol>
    <symbol id="svgsymbol-play-arrow" viewBox="0 0 24 24"><path d="M0 0h24v24H0z" fill="none"/><path d="M8 5v14l11-7z"/></symbol>
    <symbol id="svgsymbol-position" viewBox="0 0 72 72"><g fill="none" fill-rule="evenodd"><path d="M0 0h72v72H0z"/><path d="M36 0c6.927 0 12.848 2.49 17.707 7.448C58.563 12.4 61 18.43 61 25.484c0 3.528-.857 7.534-2.562 12.021-1.686 4.44-3.728 8.605-6.124 12.494a246.364 246.364 0 01-7.035 10.807l-.761 1.095-.736 1.045c-.12.17-.24.337-.359.503l-.698.97-.34.467-.662.896-.638.848-.614.8c-.301.387-.594.757-.878 1.109l-.28.346-3.348 3.628-2.302-2.728-1.13-1.329-.432-.523-.498-.621-.566-.72-1.09-1.418-1.009-1.333-1.116-1.493-1.002-1.352c-2.812-3.807-5.274-7.506-7.387-11.097-2.123-3.61-4.053-7.686-5.79-12.227C11.884 33.074 11 29.014 11 25.484c0-7.052 2.41-13.055 7.212-17.954C23.124 2.519 29.072 0 36 0zm0 2c-6.388 0-11.822 2.301-16.36 6.93C15.208 13.452 13 18.951 13 25.484c0 3.261.834 7.088 2.511 11.473 1.7 4.442 3.582 8.418 5.646 11.928 2.076 3.53 4.5 7.17 7.271 10.922l1.619 2.179 1.714 2.269.843 1.094.723.917.601.741.256.304 1.85 2.177 1.769-1.914.27-.332.558-.703.584-.754.611-.805.638-.856.663-.908.69-.958.715-1.01.742-1.06.36-.52a245.412 245.412 0 006.978-10.718c2.329-3.78 4.314-7.831 5.957-12.155C58.193 32.52 59 28.747 59 25.484c0-6.532-2.234-12.059-6.72-16.636C47.795 4.274 42.388 2 36 2zm.667 14.154c2.665 0 4.965.96 6.842 2.855 1.876 1.894 2.824 4.21 2.824 6.895 0 2.684-.948 5-2.824 6.895-1.877 1.895-4.177 2.855-6.842 2.855-2.654 0-4.972-.924-6.947-2.796-1.807-1.946-2.72-4.28-2.72-6.954 0-2.684.948-5.001 2.824-6.895 1.878-1.895 4.177-2.855 6.843-2.855zm0 2c-2.132 0-3.92.746-5.422 2.263C29.741 21.935 29 23.745 29 25.904c0 2.17.723 4.017 2.14 5.547 1.559 1.475 3.384 2.203 5.527 2.203 2.131 0 3.92-.746 5.421-2.263 1.504-1.518 2.245-3.329 2.245-5.487 0-2.159-.74-3.97-2.245-5.487-1.502-1.517-3.29-2.263-5.421-2.263z" fill="#191919"/></g></symbol>
    <symbol id="svgsymbol-press" viewBox="0 0 72 72"><g fill="none" fill-rule="evenodd"><path d="M0 0h72v72H0z"/><path d="M59 7v26h13L59 60.733V64h-1.531L57 65v-1H0V7h59zm-2 2H2v53h55V9zm11.854 26H59v21.021L68.854 35zM48 50.5v2H11v-2h37zm0-7v2H11v-2h37zm0-7v2H11v-2h37zM25 19v13H10V19h15zm23 10.5v2H31v-2h17zM23 21H12v9h11v-9zm25 .5v2H31v-2h17z" fill="#191919"/></g></symbol>
    <symbol id="svgsymbol-remove" viewBox="0 0 24 24"><path d="M0 0h24v24H0z" fill="none"/><path d="M19 13H5v-2h14v2z"/></symbol>
    <symbol id="svgsymbol-replay" viewBox="0 0 24 24"><path d="M0 0h24v24H0z" fill="none"/><path d="M12 5V1L7 6l5 5V7c3.31 0 6 2.69 6 6s-2.69 6-6 6-6-2.69-6-6H4c0 4.42 3.58 8 8 8s8-3.58 8-8-3.58-8-8-8z"/></symbol>
    <symbol id="svgsymbol-search" viewBox="0 0 24 24"><path d="M0 0h24v24H0V0z" fill="none"/><path d="M15.5 14h-.79l-.28-.27A6.471 6.471 0 0016 9.5 6.5 6.5 0 109.5 16c1.61 0 3.09-.59 4.23-1.57l.27.28v.79l5 4.99L20.49 19l-4.99-5zm-6 0C7.01 14 5 11.99 5 9.5S7.01 5 9.5 5 14 7.01 14 9.5 11.99 14 9.5 14z"/></symbol>
    <symbol id="svgsymbol-share" viewBox="0 0 24 24"><path d="M0 0h24v24H0z" fill="none"/><path d="M18 16.08c-.76 0-1.44.3-1.96.77L8.91 12.7c.05-.23.09-.46.09-.7s-.04-.47-.09-.7l7.05-4.11c.54.5 1.25.81 2.04.81 1.66 0 3-1.34 3-3s-1.34-3-3-3-3 1.34-3 3c0 .24.04.47.09.7L8.04 9.81C7.5 9.31 6.79 9 6 9c-1.66 0-3 1.34-3 3s1.34 3 3 3c.79 0 1.5-.31 2.04-.81l7.12 4.16c-.05.21-.08.43-.08.65 0 1.61 1.31 2.92 2.92 2.92 1.61 0 2.92-1.31 2.92-2.92s-1.31-2.92-2.92-2.92z"/></symbol>
    <symbol id="svgsymbol-shopping-cart" viewBox="0 0 24 24"><path d="M0 0h24v24H0V0z" fill="none"/><path d="M15.55 13c.75 0 1.41-.41 1.75-1.03l3.58-6.49A.996.996 0 0020.01 4H5.21l-.94-2H1v2h2l3.6 7.59-1.35 2.44C4.52 15.37 5.48 17 7 17h12v-2H7l1.1-2h7.45zM6.16 6h12.15l-2.76 5H8.53L6.16 6zM7 18c-1.1 0-1.99.9-1.99 2S5.9 22 7 22s2-.9 2-2-.9-2-2-2zm10 0c-1.1 0-1.99.9-1.99 2s.89 2 1.99 2 2-.9 2-2-.9-2-2-2z"/></symbol>
    <symbol id="svgsymbol-twitter" viewBox="0 0 24 24" fill="none"><path d="M8.23304 22C16.9123 22 21.6595 14.6896 21.6595 8.34998C21.6595 8.14234 21.6595 7.93564 21.6457 7.72987C22.5692 7.05075 23.3664 6.20987 24 5.2466C23.1388 5.63457 22.2252 5.889 21.2897 6.0014C22.2748 5.40185 23.012 4.45885 23.3643 3.34791C22.438 3.90672 21.4246 4.30054 20.3678 4.51238C18.9051 2.93113 16.5809 2.54411 14.6984 3.56834C12.8159 4.59258 11.8434 6.77334 12.3261 8.88779C8.53194 8.69441 4.99692 6.87249 2.6008 3.87543C1.34833 6.06748 1.98807 8.87176 4.06176 10.2795C3.3108 10.2569 2.57622 10.051 1.92 9.67907C1.92 9.69871 1.92 9.71929 1.92 9.73986C1.92061 12.0235 3.50401 13.9904 5.7058 14.4426C5.01108 14.6353 4.28217 14.6634 3.57508 14.5249C4.19327 16.4792 5.96485 17.818 7.98372 17.8565C6.31276 19.1916 4.24857 19.9164 2.12332 19.9142C1.74787 19.9135 1.37279 19.8904 1 19.845C3.15798 21.2529 5.66892 21.9997 8.23304 21.9963" fill="#0072EF"/></symbol>
    <symbol id="svgsymbol-unfold-more" viewBox="0 0 24 24"><path d="M0 0h24v24H0V0z" fill="none"/><path d="M12 5.83L15.17 9l1.41-1.41L12 3 7.41 7.59 8.83 9 12 5.83zm0 12.34L8.83 15l-1.41 1.41L12 21l4.59-4.59L15.17 15 12 18.17z"/></symbol>
    <symbol id="svgsymbol-v-card" viewBox="0 0 24 24"><path d="M0 0h24v24H0V0z" fill="none"/><path d="M19 11h-8v6h8v-6zm-2 4h-4v-2h4v2zm4-12H3c-1.1 0-2 .88-2 1.98V19c0 1.1.9 2 2 2h18c1.1 0 2-.9 2-2V4.98C23 3.88 22.1 3 21 3zm0 16.02H3V4.97h18v14.05z"/></symbol>
    <symbol id="svgsymbol-video" viewBox="0 0 24 24"><path d="M0 0h24v24H0V0z" fill="none"/><path d="M10 16.5l6-4.5-6-4.5zM12 2C6.48 2 2 6.48 2 12s4.48 10 10 10 10-4.48 10-10S17.52 2 12 2zm0 18c-4.41 0-8-3.59-8-8s3.59-8 8-8 8 3.59 8 8-3.59 8-8 8z"/></symbol>
    <symbol id="svgsymbol-zeiss-logo" viewBox="0 0 581 585"><g fill-rule="evenodd"><path d="M571.01 8.866H7.088v567.8l4.006-1.803c88.145-39.665 182.299-59.778 279.458-59.778 97.16 0 191.314 20.113 278.456 59.778l4.007 1.803 1.002-567.8h-3.005" fill="#141e8c"/><path d="M77.202 181.488c-27.045 0-29.048 26.694-29.048 26.694h-12.02v-39.545h98.161s0 30.56-29.047 62.994c0 0-27.045 32.072-28.046 46.085h16.026c23.038 0 25.04-26.674 25.04-26.674h13.022v39.625H31.126s-3.005-30.019 31.05-66.499c0 0 22.037-23.899 27.045-42.77l-12.02.09M326.61 290.577v-12.941h-3.005c-5.008 0-10.016-4.407-10.016-9.796v-76.465c0-5.4 5.008-9.806 10.016-9.806h3.005v-12.932h-65.106v12.932h3.004c6.01 0 10.017 4.407 10.017 9.806v76.465c0 5.389-4.007 9.796-10.017 9.796h-3.004v12.941h65.106m-78.128.09v-39.625h-13.021s-3.005 26.674-26.043 26.674h-13.021v-41.588h5.008c5.008 0 10.016 4.397 10.016 9.876v4.948h13.022v-42.68H211.42v4.938c0 5.48-5.008 9.887-10.016 9.887h-5.008v-41.609h13.021c23.038 0 26.043 26.694 26.043 26.694h13.021v-39.645H145.313v13.032h3.005c5.008 0 9.015 4.407 9.015 9.806v76.465c0 5.389-4.007 9.796-9.015 9.796h-3.005v12.941l103.17.09m146.239-109.179c27.044 0 29.047 26.694 29.047 26.694h12.02v-39.545h-93.152s-15.025 19.412 24.039 62.994c0 0 27.044 32.072 28.046 46.085h-16.026c-23.038 0-25.041-26.674-25.041-26.674h-13.022v39.625h94.155s17.027-18.51-25.042-66.499c0 0-23.037-22.917-27.044-42.77l12.02.09m110.18 0c26.043 0 28.046 26.694 28.046 26.694h13.022v-39.545h-94.155s-15.024 19.412 24.04 62.994c0 0 27.044 32.072 28.046 46.085h-16.026c-22.037 0-25.042-26.674-25.042-26.674h-13.02v39.625h94.153s17.028-18.51-25.04-66.499c0 0-22.037-22.917-26.043-42.77l12.02.09" fill="#fff"/></g></symbol>
  </defs>
</svg>
